<?xml version="1.0" encoding="UTF-8" standalone="no"?>
<!-- Created with Inkscape (http://www.inkscape.org/) -->

<svg
   version="1.1"
   id="svg2"
   width="793.70667"
   height="349.18668"
   viewBox="0 0 793.70667 349.18668"
   sodipodi:docname="DataPB Logo.eps"
   xmlns:inkscape="http://www.inkscape.org/namespaces/inkscape"
   xmlns:sodipodi="http://sodipodi.sourceforge.net/DTD/sodipodi-0.dtd"
   xmlns="http://www.w3.org/2000/svg"
   xmlns:svg="http://www.w3.org/2000/svg">
  <defs
     id="defs6" />
  <sodipodi:namedview
     id="namedview4"
     pagecolor="#ffffff"
     bordercolor="#000000"
     borderopacity="0.25"
     inkscape:showpageshadow="2"
     inkscape:pageopacity="0.0"
     inkscape:pagecheckerboard="0"
     inkscape:deskcolor="#d1d1d1" />
  <g
     id="g8"
     inkscape:groupmode="layer"
     inkscape:label="ink_ext_XXXXXX"
     transform="matrix(1.3333333,0,0,-1.3333333,0,349.18667)">
    <g
       id="g10"
       transform="scale(0.1)">
      <path
         d="m 3053.31,1522.11 c 13.62,5.79 23.51,18.89 24.35,34.67 1.17,22.06 -15.76,40.89 -37.82,42.06 -129.47,6.87 -216.07,13.12 -239.42,36.45 -19.48,19.46 -30.21,52.49 -30.21,92.98 0,73.39 49.89,136.1 121.33,152.51 12.86,2.95 23.43,12.05 28.26,24.33 0.83,2.1 1.81,4.09 2.7,6.16 -9.42,0.99 -19.03,1.66 -29.03,1.66 -45.82,0 -95.76,-10.88 -147.29,-31.39 -35.24,-41.51 -55.97,-95.17 -55.97,-153.27 0,-61.87 19.06,-114.99 53.66,-149.56 42.31,-42.29 112.54,-50.17 286.27,-59.46 6.92,1.94 14.21,2.98 21.72,2.98 0.49,0 0.97,-0.11 1.45,-0.12"
         style="fill:#27963c;fill-opacity:1;fill-rule:nonzero;stroke:none"
         id="path12" />
      <path
         d="m 3660.87,1905.57 c -49.04,129.84 -174.74,218.15 -315.55,218.15 -39.44,0 -77.91,-6.71 -114.58,-19.99 -34.29,13.28 -70.35,19.99 -107.44,19.99 -64.76,0 -125.52,-20.49 -175.23,-56.49 41,-5.14 79.75,-15.99 114.71,-32.04 19.33,5.51 39.62,8.53 60.52,8.53 31.41,0 61.81,-6.58 90.34,-19.54 5.26,-2.39 10.92,-3.59 16.57,-3.59 5.27,0 10.54,1.04 15.49,3.12 31.57,13.28 65.09,20.01 99.62,20.01 115.22,0 217.16,-77.49 247.9,-188.44 4.84,-17.46 20.57,-29.32 38.7,-29.32 0.67,0 1.34,0.02 2.02,0.06 2.88,0.15 5.77,0.25 8.68,0.25 86.32,0 156.54,-70.23 156.54,-156.55 0,-18.96 -1.67,-32.4 -5.35,-42.74 -33.91,-20.65 -215.63,-25.12 -336.81,-28.09 -22.08,-0.55 -39.54,-18.89 -39,-40.98 0.54,-21.75 18.34,-39.01 39.97,-39.01 0.33,0 0.66,0 1.01,0.01 280.69,6.9 381.17,14.45 406.51,71.96 12.12,27.52 13.67,56.6 13.67,78.85 0,124.3 -96.36,226.51 -218.29,235.85"
         style="fill:#80cc28;fill-opacity:1;fill-rule:nonzero;stroke:none"
         id="path14" />
      <path
         d="m 2857.56,1961.05 c 12.17,1.2 24.17,1.88 35.91,1.88 19.4,0 38.08,-1.85 56.08,-5.13 14.19,18.68 31.08,34.87 50.15,47.92 -30.93,9.2 -65.2,14.49 -102.27,14.92 -15.45,-17.93 -28.83,-37.91 -39.87,-59.59"
         style="fill:#36ab9c;fill-opacity:1;fill-rule:nonzero;stroke:none"
         id="path16" />
      <path
         d="m 4058.44,1666.95 c -1.74,-14.01 -15.62,-25.07 -32.99,-25.07 h -32.98 v 185.87 h 32.98 c 17.37,0 31.25,-11.06 32.99,-25.08 z m -19.1,210.22 h -108.51 v -91.72 c 16.47,-35.37 25.7,-74.61 25.7,-115.73 0,-26.17 -1.94,-60.62 -17.07,-94.97 -2.47,-5.62 -5.42,-10.73 -8.63,-15.56 v -0.72 c -90.2,-165.03 -336.38,-439.44 -548.41,-425.29 -17.28,1.16 -69.87,4.66 -87.87,94.21 -30.64,152.45 57.06,408.27 139.38,526.79 l -14.18,-85.11 c -1.94,-11.63 2.6,-23.55 12.06,-29.24 10.05,-6.05 26.1,-6.05 33.4,-2.17 0.25,0.14 0.48,0.3 0.72,0.46 1.83,1.19 3.52,2.65 5.03,4.31 4.09,4.5 6.92,10.49 7.97,16.77 l 29.31,175.93 c 1.86,11.13 -2.68,22.36 -11.75,29.07 -9.1,6.69 -21.15,7.74 -31.24,2.7 -131.63,-65.76 -268.92,-455.34 -229.53,-651.33 17.45,-86.76 68.13,-137.28 142.72,-142.25 6.81,-0.45 13.52,-0.67 20.27,-0.67 219.42,0 443.3,235.5 532.12,370.38 v -71.12 c 0,-3.69 2.61,-11.07 17.37,-11.07 h 44.27 v 231.62 h 37.33 c 59.89,0 88.54,36.14 88.54,86.29 v 133.51 c 0,36.14 -37.33,64.91 -79,64.91"
         style="fill:#3871c1;fill-opacity:1;fill-rule:nonzero;stroke:none"
         id="path18" />
      <path
         d="m 4432.57,1673.59 c 0,-23.6 -15.62,-30.24 -32.12,-30.24 h -33.85 v 180.71 h 33.85 c 16.5,0 32.12,-7.37 32.12,-26.55 z m 0,-233.08 c 0,-19.92 -15.62,-27.3 -32.12,-27.3 h -33.85 v 181.46 h 33.85 c 16.5,0 32.12,-6.64 32.12,-29.51 z m 26.92,178.5 c 36.45,9.59 35.58,42.04 35.58,42.04 v 151.21 c -0.87,36.14 -34.71,64.91 -77.25,64.91 h -112.85 v -516.33 h 112.85 c 42.54,0 76.38,28.77 77.25,64.91 v 151.21 c 0,0 0.87,32.46 -35.58,42.05"
         style="fill:#3871c1;fill-opacity:1;fill-rule:nonzero;stroke:none"
         id="path20" />
      <path
         d="m 1517.5,1448.81 c 0,-19.91 -15.63,-27.29 -32.99,-27.29 h -40.8 v 410.85 h 40.8 c 17.36,0 32.99,-7.37 32.99,-26.55 z m -15.63,436.67 h -120.66 v -516.33 h 120.66 c 42.54,0 76.4,28.76 77.26,64.91 v 386.51 c -0.86,36.14 -34.72,64.91 -77.26,64.91"
         style="fill:#3871c1;fill-opacity:1;fill-rule:nonzero;stroke:none"
         id="path22" />
      <path
         d="m 1858.65,1885.48 h -33.86 l -92.01,-516.33 h 68.58 l 54.68,355.53 54.69,-355.53 h 68.58 l -87.68,488.3 c -2.6,14.01 -6.94,28.03 -32.98,28.03"
         style="fill:#3871c1;fill-opacity:1;fill-rule:nonzero;stroke:none"
         id="path24" />
      <path
         d="m 2081.75,1869.25 v -36.14 h 87.67 v -452.9 c 0,-3.68 2.61,-11.06 17.36,-11.06 h 44.27 v 451.42 c 0.87,6.64 6.95,12.54 15.63,12.54 h 48.61 c 19.97,0 29.52,7.37 32.99,14.01 l 20.84,38.36 h -248.28 c -10.41,0 -19.09,-7.38 -19.09,-16.23"
         style="fill:#3871c1;fill-opacity:1;fill-rule:nonzero;stroke:none"
         id="path26" />
      <path
         d="m 2892.54,2020.73 c -103.83,0 -229.18,-38.05 -364.61,-135.25 l -92.02,-516.33 h 68.58 l 54.69,355.53 54.69,-355.53 h 68.58 l -34.43,191.75 c -36.11,41.81 -56.05,100.49 -56.05,167.37 0,58.1 18.02,112.62 49.36,157.75 74.97,43.37 148.71,68.38 216.23,75.03 11.04,21.68 24.42,41.66 39.87,59.59 -1.64,0.02 -3.24,0.09 -4.89,0.09"
         style="fill:#3871c1;fill-opacity:1;fill-rule:nonzero;stroke:none"
         id="path28" />
      <path
         d="m 3099.94,1954.18 c -27.34,22.1 -61.14,39.91 -100.24,51.54 -30.93,9.2 -65.2,14.49 -102.27,14.92 -1.64,0.02 -3.24,0.09 -4.89,0.09 -103.83,0 -229.18,-38.05 -364.61,-135.25 l -92.02,-516.33 h 68.58 l 54.69,355.53 54.69,-355.53 h 68.58 l -34.43,191.75 c -36.11,41.81 -56.05,100.49 -56.05,167.37 0,58.1 18.02,112.62 49.36,157.75 74.97,43.37 148.71,68.38 216.23,75.03 12.17,1.2 24.17,1.88 35.91,1.88 19.4,0 38.08,-1.85 56.08,-5.13 42.36,-7.72 80.56,-24.33 112.69,-50.29 113.37,-91.61 145.17,-275.76 103.75,-390.27 -27.47,-75.97 -66.63,-131.86 -99.34,-169.07 l 14.86,89.12 c 2.72,16.35 -8.31,31.8 -24.66,34.53 -1.68,0.28 -3.35,0.41 -4.99,0.41 -14.39,0 -27.1,-10.4 -29.53,-25.07 L 2993,1271.23 c -1.97,-11.81 3.27,-23.65 13.33,-30.14 4.95,-3.2 10.61,-4.79 16.26,-4.79 5.83,0 11.65,1.69 16.7,5.08 4.88,3.27 120.46,82.2 183.12,255.45 48.25,133.38 15.14,346.15 -122.47,457.35"
         style="fill:#3871c1;fill-opacity:1;fill-rule:nonzero;stroke:none"
         id="path30" />
    </g>
  </g>
</svg>
